<svg xmlns="http://www.w3.org/2000/svg" viewBox="0 0 3583.33 381.61"><defs><style>.cls-1{fill:#00551e;}.cls-2{fill:#fda400;}.cls-3{fill:#033800;}.cls-4{fill:#022100;}</style></defs><title>CW Logo-primary full</title><g id="Layer_2" data-name="Layer 2"><g id="Layer_1-2" data-name="Layer 1"><circle class="cls-1" cx="212.1" cy="54.32" r="54.32"/><path class="cls-2" d="M129.34,121.57h0A129.35,129.35,0,0,1,258.69,250.91V380.26H129.34A129.35,129.35,0,0,1,0,250.91H0A129.34,129.34,0,0,1,129.34,121.57Z"/><path class="cls-1" d="M294.87,121.57h0A129.34,129.34,0,0,0,165.53,250.91V380.26H294.87A129.35,129.35,0,0,0,424.22,250.91h0A129.35,129.35,0,0,0,294.87,121.57Z"/><path class="cls-3" d="M258.67,250.94V380.26H165.53V250.94a128.89,128.89,0,0,1,46.62-99.39A129.07,129.07,0,0,1,258.67,250.94Z"/><path class="cls-4" d="M258.67,250.94V380.26H165.53V250.94a128.89,128.89,0,0,1,46.62-99.39A129.07,129.07,0,0,1,258.67,250.94Z"/><path class="cls-1" d="M586.65,201.08a103.25,103.25,0,0,1,40.81-42q26.43-15,60.81-15,43.62,0,73.36,23.29T800,230.64H730.23q-6.27-13.21-17.35-20.15t-25.61-6.94q-22.47,0-35.85,16T638,262.35q0,27.09,13.38,43.11t35.85,16q14.55,0,25.61-6.94t17.35-20.15H800q-8.6,40-38.33,63.26T688.27,381q-34.38,0-60.81-15a103.16,103.16,0,0,1-40.81-42Q572.28,297,572.28,262.35,572.28,228,586.65,201.08Z"/><path class="cls-1" d="M915.28,366.25a114.56,114.56,0,0,1-43.45-42.62q-16-27.25-16-61.61t16-61.61A113.26,113.26,0,0,1,915.28,158a122.07,122.07,0,0,1,60.15-15.19q33,0,60.31,15.19a112.48,112.48,0,0,1,43.12,42.45q15.86,27.26,15.86,61.61t-15.86,61.61a113.44,113.44,0,0,1-43.29,42.62,125.43,125.43,0,0,1-120.29,0Zm99.31-60.95Q1029,289.12,1029,262q0-27.75-14.37-43.77t-39.16-16q-25.11,0-39.32,16T921.89,262q0,27.44,14.22,43.44t39.32,16Q1000.21,321.49,1014.59,305.3Z"/><path class="cls-1" d="M1485,146.4l-57.17,232.9h-79.64l-32.05-142.71L1283.4,379.3h-79.64l-56.5-232.9h70l27.1,159.23,36.68-159.23h71.05l35.69,157.91,27.09-157.91Z"/><path class="cls-1" d="M1663.42,379.3l-46.26-85.89h-6.94V379.3h-64.77V146.4h102.11q28.08,0,47.58,9.74t29.41,26.77a74.36,74.36,0,0,1,9.92,38.15q0,23.79-13.06,41.79t-38.16,25.6l52.54,90.85Zm-53.2-130.16h32q13.21,0,19.83-6.28t6.61-18.17q0-11.22-6.78-17.67t-19.66-6.44h-32Z"/><path class="cls-1" d="M2008.74,146.4l-82,158.9v74h-65.1v-74l-82-158.9h74l41,89.85,41-89.85Z"/><path class="cls-1" d="M2389.75,146.4l-57.17,232.9h-79.64l-32.05-142.71L2188.17,379.3h-79.64L2052,146.4h70l27.1,159.23,36.68-159.23h71l35.69,157.91,27.09-157.91Z"/><path class="cls-1" d="M2515,198.26v38h74.35v49.23H2515v41.95h84.26V379.3h-149V146.4h149v51.86Z"/><path class="cls-1" d="M2811.73,341.31h-82.61l-12.56,38h-68.08l84.93-232.9h74.68l84.6,232.9h-68.4Zm-16.19-49.56-25.12-75.32-24.78,75.32Z"/><path class="cls-1" d="M3011.65,329.74H3084V379.3H2946.88V146.4h64.77Z"/><path class="cls-1" d="M3317.64,146.4v51.53h-62.12V379.3h-64.77V197.93h-61.46V146.4Z"/><path class="cls-1" d="M3583.33,146.4V379.3h-64.77V285.8h-79v93.5h-64.77V146.4h64.77v87.54h79V146.4Z"/></g></g></svg>