<?xml version="1.0" encoding="UTF-8"?> <!-- Generator: Adobe Illustrator 23.0.2, SVG Export Plug-In . SVG Version: 6.00 Build 0) --> <svg xmlns="http://www.w3.org/2000/svg" xmlns:xlink="http://www.w3.org/1999/xlink" id="Layer_1" x="0px" y="0px" viewBox="0 0 94 94" style="enable-background:new 0 0 94 94;" xml:space="preserve"> <style type="text/css"> .st0{fill:#B3975B;} </style> <g> <g> <path class="st0" d="M41.2,41c-3.7,1.1-8.2,2.9-9.5,7c-0.5,2.2,0.2,4.4,1.9,5.8c1.9,1.5,4.9,2.1,7.1,1.1c1.4-0.6,2.5-1.7,2.9-3.4 c-1.4,1-3.7,1-5,0c-1.2-0.9-1.8-2.2-1.8-3.7c0.2-2.8,3.2-4.9,5.7-5.6c0.8-0.2,1.7-0.4,2.7-0.5c-0.6,2.8-2.9,5.6-5.5,7 c0,0,2,0.8,5.2-0.2c0,0,0.4,3.2,2.1,6.2c1.7-2.9,2.1-6.2,2.1-6.2c3.1,1,5.2,0.2,5.2,0.2c-2.6-1.4-4.9-4.2-5.5-7 c0.9,0,1.9,0.2,2.7,0.5c2.5,0.7,5.4,2.8,5.7,5.6c0,1.5-0.6,2.7-1.8,3.7c-1.4,1-3.6,1-5,0c0.5,1.7,1.5,2.8,2.9,3.4 c2.2,1,5.2,0.5,7.1-1.1c1.8-1.4,2.5-3.5,1.9-5.8c-1.3-4.1-5.8-5.9-9.5-7h0c5.8-0.5,11.2-2,15.4-6.2c3.1-3.3,5.1-8,3.3-12.6 c-1.1-3.1-4.3-5.2-7.5-5.3c-7.6-0.4-11.1,7.1-11.6,9.5c0,0,4.1-5,9.8-3.7c1.8,0.4,3.5,1.9,4,3.7c0.8,3.4-0.5,6.5-3,8.9 c-3.6,3-8.1,4.2-12.7,4.6c0.1-2.5,0.7-4.8,2.3-6.6c1.1-1.3,2.7-2.1,4.2-1.8c1.4,0.3,1.9,1.6,1.8,2.5c-0.2,1.4-1.4,2.3-1.4,2.3 c2.6-0.3,5.2-2.4,5.9-4.8c0.8-3-1.8-6.4-6-5.5c-6.1,1.4-7.9,8.4-8.2,14.1c-0.2,0-0.4,0-0.6,0c-1.3-6.5,1.9-11.9,3.3-17.6h0 c1.2-5-1.4-10.5-4.7-14.5c-3.2,4-5.9,9.5-4.7,14.5c1.3,5.8,4.6,11.1,3.3,17.6c-0.2,0-0.4,0-0.6,0c-0.3-5.7-2.2-12.7-8.2-14.1 c-4.2-1-6.7,2.4-6,5.5c0.7,2.4,3.3,4.6,5.9,4.8c0,0-1.2-0.9-1.4-2.3c-0.1-0.9,0.4-2.2,1.8-2.5c1.5-0.3,3.1,0.6,4.2,1.8 c1.6,1.8,2.2,4.1,2.3,6.6c-4.7-0.4-9.1-1.6-12.7-4.6c-2.5-2.3-3.8-5.5-3-8.9c0.5-1.9,2.2-3.3,4-3.7c5.7-1.3,9.8,3.7,9.8,3.7 c-0.4-2.4-3.9-10-11.6-9.5c-3.2,0.2-6.3,2.2-7.5,5.3c-1.8,4.6,0.2,9.3,3.3,12.6C30,38.9,35.4,40.4,41.2,41"></path> <path d="M71.3,64.2c0,0.3,0.3,0.8,0.7,1.3c0.5-0.4,0.9-0.9,0.9-1.3c0-0.5-0.3-0.8-0.8-0.8S71.3,63.7,71.3,64.2 M73.1,70.5 l-1.8-2.6c-0.8,0.4-1.1,0.9-1.1,1.7c0,0.8,0.6,1.3,1.7,1.3C72.2,70.9,72.7,70.8,73.1,70.5 M75.8,70.8l1.2,1.8h-2.6L74.1,72 c-0.8,0.4-1.7,0.7-2.7,0.7c-1.9,0-3.4-1.2-3.4-3c0-1.6,0.9-2.4,2.3-3.2c-0.6-0.8-0.9-1.3-0.9-2.2c0-1.7,1.2-2.5,2.8-2.5 c1.5,0,2.6,1,2.6,2.5c0,1.1-0.8,2-1.6,2.6l1.6,2.4c0.5-0.5,1-1,1.4-1.4l1.2,1.4C76.9,69.7,76.4,70.2,75.8,70.8"></path> <path d="M21,63.9h-1.5v2.6H21c0.8,0,1.3-0.5,1.3-1.4C22.3,64.3,21.7,63.9,21,63.9 M22.4,72.6l-3-5v5h-2.3V61.9H21 c2.2,0,3.7,1.3,3.7,3.2c0,1.6-1,2.6-2.4,3l2.8,4.5H22.4z"></path> </g> <polygon points="34.4,72.6 34.4,61.9 36.8,61.9 36.8,70.6 40.6,70.6 40.6,72.6 "></polygon> <g> <path d="M46.6,65.3c-0.1-0.4-0.2-0.9-0.2-0.9s-0.1,0.5-0.2,0.9l-0.8,2.6h2L46.6,65.3z M48.8,72.6L48,69.9h-3.3l-0.8,2.7h-2.5 l3.8-10.7h2.3l3.9,10.7H48.8z"></path> </g> <rect x="52.7" y="61.9" width="2.3" height="10.7"></rect> <g> <path d="M60,72.7c-1.5,0-2.6-0.5-3.6-1.3l1.2-1.6c0.6,0.5,1.5,0.9,2.4,0.9c1.1,0,1.4-0.4,1.4-1c0-1.1-1.9-1.4-2.8-1.9 c-1.1-0.6-1.9-1.3-1.9-3c0-2.2,1.9-3.1,3.8-3.1c1,0,2.2,0.3,3.1,0.9l-1.1,1.7c-0.5-0.4-1.3-0.6-2-0.6c-1.1,0-1.5,0.6-1.5,1 c0,1,1.4,1.3,2.6,1.8c1,0.5,2.2,1.2,2.2,2.9C63.8,71.6,62.3,72.7,60,72.7"></path> <path d="M14.9,86.2c-3.2,0-5.5-2.2-5.5-5.6c0-3.2,2.4-5.5,5.4-5.5c1.6,0,2.8,0.5,3.8,1.6l-1.3,1.5c-0.7-0.7-1.5-1.1-2.5-1.1 c-1.8,0-3,1.4-3,3.4c0,2.2,1.1,3.5,3,3.5c1.3,0,2-0.6,2.7-1.2l1.3,1.5C17.9,85.5,16.8,86.2,14.9,86.2"></path> <path d="M35,78.7c-0.1-0.4-0.2-0.9-0.2-0.9s-0.1,0.5-0.2,0.9l-0.8,2.6h2L35,78.7z M37.2,86l-0.8-2.7h-3.3L32.3,86h-2.5l3.8-10.7 h2.3L39.8,86H37.2z"></path> </g> <polygon points="39.5,75.3 39.5,77.3 41.6,77.3 41.6,86 43.9,86 43.9,77.3 46,77.3 46,75.3 "></polygon> <g> <path d="M60,78.7c-0.1-0.4-0.2-0.9-0.2-0.9s-0.1,0.5-0.2,0.9l-0.8,2.6h2L60,78.7z M62.2,86l-0.8-2.7h-3.3L57.3,86h-2.5l3.8-10.7 h2.3L64.8,86H62.2z"></path> <path d="M69.7,86.2c-2.5,0-4.6-1.6-4.6-4.5v-6.4h2.4v6.4c0,1.4,0.9,2.5,2.2,2.5c1.3,0,2.4-1,2.4-2.5v-6.4h2.3v6.4 C74.4,84.6,72.2,86.2,69.7,86.2"></path> </g> <polygon points="81.3,75.3 79.8,78.1 78.2,75.3 75.6,75.3 78.5,80.2 75,86 77.6,86 79.8,82.2 81.9,86 84.6,86 81.1,80.2 83.9,75.3 "></polygon> <polygon points="47.2,75.3 47.2,86 53.6,86 53.6,84 49.5,84 49.5,81.7 53.4,81.7 53.4,79.7 49.5,79.7 49.5,77.3 53.4,77.3 53.4,75.3 "></polygon> <polygon points="28.6,70.6 28.6,68.2 32.5,68.2 32.5,66.2 28.6,66.2 28.6,63.9 32.5,63.9 32.5,61.9 26.2,61.9 26.2,72.6 32.7,72.6 32.7,70.6 "></polygon> <polygon points="26.3,75.3 26.3,79.7 22.5,79.7 22.5,75.3 20.2,75.3 20.2,86 22.5,86 22.5,81.7 22.5,81.7 26.3,81.7 26.3,81.7 26.3,86 28.6,86 28.6,75.3 "></polygon> </g> </svg> 